# xmcd
#
# Track frame offsets: 
#        150
#        23393
#        27860
#        58130
#        74440
#        110680
#        132380
#        148285
#        164008
#        179018
#        192670
#        205563
#        222140
#        237708
#        252313
#        307958
#        316326
#        354988
#
# Disc length: 4737 seconds
#
# Revision: 0
# Processed by: cddbd v1.5.2PL0 Copyright (c) Steve Scherf et al.
# Submitted via: ExactAudioCopy v0.99pb5
#
DISCID=1b127f12
DTITLE=Joe Walsh - Look What I Did - The Joe Walsh Anthology d2
DYEAR=1995
DGENRE=Rock
TTITLE0=Welcome To The Club
TTITLE1=All Night Laundry Mat Blues
TTITLE2=County Fair
TTITLE3=Help Me Thru The Night
TTITLE4=Life's Been Good
TTITLE5=Over And Over
TTITLE6=All Night Long
TTITLE7=A Life Of Illusion
TTITLE8=Theme From Island Weirdos
TTITLE9=I Can Play That Rock and Roll
TTITLE10=I.L.B.T.'s
TTITLE11=Space Age Whiz Kids
TTITLE12=Rosewood Bitters
TTITLE13=Shut Up
TTITLE14=Decades
TTITLE15=Song For A Dying Planet
TTITLE16=Ordinary Average Guy
TTITLE17=Universal
EXTD=
EXTT0=
EXTT1=
EXTT2=
EXTT3=
EXTT4=
EXTT5=
EXTT6=
EXTT7=
EXTT8=
EXTT9=
EXTT10=
EXTT11=
EXTT12=
EXTT13=
EXTT14=
EXTT15=
EXTT16=
EXTT17=
PLAYORDER=
